<svg xmlns="http://www.w3.org/2000/svg" width="1728" height="714" viewBox="0 0 1728 714" fill="none">
<g clip-path="url(#clip0_560_3117)">
<path d="M1729.62 -48.4658L1637.4 -48.3138C1628.53 -48.3138 1619.82 -48.2815 1611.25 -48.217C1599.85 -48.217 1588.63 -48.1203 1577.58 -48.1203C1500.71 -48.1203 1431.63 -50.5384 1359.2 -71.9284C1336.17 -78.7267 1313.23 -86.9621 1291.03 -94.935C1239.83 -113.257 1186.89 -132.271 1125.55 -136.9C1041.46 -143.283 957.228 -120.664 882.914 -100.697C874.044 -98.3065 865.293 -95.9575 856.689 -93.7052C848.914 -91.6602 841.049 -89.5599 833.037 -87.4181C757.304 -67.2027 671.342 -44.2375 582.763 -49.8475C527.874 -53.3573 485.388 -68.2252 444.291 -82.6233C427.794 -88.3992 410.749 -94.3685 392.965 -99.6054C308.703 -124.477 225.032 -119.669 117.412 -103.944C77.4986 -98.1131 37.3778 -91.2318 -1.42723 -84.5993M1712.84 -27.2142C1680.32 -27.1036 1646.76 -27.0069 1613.71 -26.772C1597.55 -26.6476 1581.41 -26.3713 1565.78 -26.1087C1545.31 -25.7495 1525.11 -25.404 1505.17 -25.404C1447.01 -25.404 1390.6 -28.3472 1333.82 -42.6625C1300.68 -50.9531 1271.38 -64.4946 1243.03 -77.5247C1204.86 -95.0733 1165.39 -113.216 1116.66 -118.605C1042.02 -126.854 955.35 -103.571 885.693 -84.862C873.187 -81.5043 861.39 -78.34 850.082 -75.4521C842.286 -73.4623 834.446 -71.4311 826.562 -69.3584C750.194 -49.5852 663.684 -27.1589 575.608 -32.7275C520.734 -36.2095 480.554 -50.4695 438.009 -65.5862C421.748 -71.3758 404.851 -77.3589 387.2 -82.6235C303.1 -107.717 216.221 -102.507 111.647 -86.9761C72.3986 -81.145 33.0762 -74.2776 -4.96017 -67.6312M1706.14 -6.50125C1672.5 -6.74997 1637.68 -6.99869 1603.37 -6.99869H1603.03C1579.19 -6.99869 1554.6 -6.43217 1530.8 -5.87946C1506.56 -5.32674 1482.02 -4.76021 1457.48 -4.76021C1410.01 -4.76021 1362.52 -6.87433 1317.04 -15.2756C1273.68 -23.2622 1241.89 -40.7003 1211.14 -57.5718C1177.43 -75.9909 1145.72 -93.3737 1100.49 -99.2463C1031.25 -108.242 944.381 -85.2627 874.577 -66.8021C860.178 -63.0022 846.593 -59.4096 834.057 -56.3282C826.34 -54.4858 818.52 -52.5513 810.596 -50.5247C733.637 -31.3733 646.418 -9.67935 558.903 -15.3032C504.295 -18.7576 464.766 -33.0867 422.989 -48.2586C406.965 -54.0759 390.467 -60.0867 372.979 -65.3927C289.293 -90.9003 203.478 -85.6219 100.368 -69.842C62.3314 -64.0247 24.3394 -57.1987 -12.4108 -50.5938M-57.8682 -35.7672C84.0474 -63.1265 230.679 -91.3977 356.629 -51.9617C374.058 -46.4346 390.393 -40.3824 406.181 -34.4822C445.962 -19.6004 483.54 -5.56155 535.546 -2.14856C619.808 3.37856 706.614 -17.1409 783.174 -35.3113C791.058 -37.1536 798.809 -38.996 806.427 -40.8384C819.85 -43.975 834.825 -47.7473 850.673 -51.8926C921.97 -70.1874 1010.73 -92.9453 1080.71 -83.6735C1129.39 -77.2068 1161.14 -57.9172 1191.85 -39.2631C1223.84 -19.8353 1256.89 0.255756 1309.27 5.82433C1367.93 12.0561 1431.74 10.0802 1493.46 8.17334C1530 7.04028 1567.8 5.87959 1603.65 6.47375C1638.82 7.06792 1674.3 8.03516 1708.61 8.98859M1922.98 41.2668C1853.19 41.2668 1784.39 37.3978 1717.38 33.6117C1683.29 31.6911 1648.05 29.7013 1612.97 28.2366C1560.64 26.0534 1506.25 25.9152 1446.67 27.8221C1428.42 28.4024 1409.72 29.8809 1391.76 31.318C1363.18 33.5979 1333.61 35.9469 1304 34.883C1236 32.451 1198.1 9.04369 1161.42 -13.5899C1129.71 -33.1697 1099.75 -51.6717 1051.63 -58.1384C987.178 -66.8574 899.53 -45.205 829.09 -27.7393C811.557 -23.4005 795.015 -19.3104 780.395 -16.1047C772.856 -14.4466 765.208 -12.747 757.452 -11.0059C688.608 4.34565 611.693 21.4935 535.576 21.5073C524.922 21.5073 514.288 21.1527 503.674 20.4434C449.776 16.754 412.42 2.28679 372.875 -13.0233C357.679 -19.0202 341.964 -25.1139 325.215 -30.5028C207.425 -68.6676 69.8115 -41.0596 -63.264 -14.3775M1739.66 53.4678C1692.35 49.0047 1643.3 44.3896 1593.82 41.778C1549.73 39.4428 1492.31 37.4392 1439.47 42.7314C1422.3 44.4586 1405.07 46.9735 1388.4 49.4054C1350.84 54.9325 1312.02 60.5702 1270.52 57.6961C1211.17 53.5508 1172.95 30.7238 1136.13 8.6153C1097.01 -14.875 1060.07 -36.9834 1000.25 -38.006C934.063 -39.1528 858.581 -21.5766 791.999 -6.07303C769.544 -0.849902 748.331 4.09686 728.315 8.14548L713.99 11.0611C634.163 27.366 543.544 45.8543 457.892 37.4945C409.626 32.7826 374.531 18.4259 340.59 4.53903C324.432 -2.06587 307.727 -8.90567 289.618 -14.8059C178.081 -50.7321 50.1355 -23.6907 -73.5528 2.48019M1757.97 72.8131C1712.63 66.4154 1665.76 59.7967 1617.53 55.5823C1577.12 52.0311 1517.11 48.1759 1462.89 55.5823C1441.63 58.484 1420.66 62.6432 1400.37 66.6365C1359.77 74.6785 1317.78 82.9968 1270.96 81.8361C1203.1 80.2056 1159.03 55.3336 1116.4 31.2906C1072.43 6.41858 1030.92 -16.892 965.787 -16.1182C898.629 -15.2753 828.425 -0.144866 760.512 14.4882C736.342 19.7113 713.517 24.6304 691.254 28.8034L676.176 31.6775C595.772 46.8771 504.694 64.1217 420.196 55.5546C372.536 50.7184 340.294 36.9144 306.161 22.309C290.594 15.6489 274.496 8.75378 256.86 2.83977C150.053 -32.9759 30.8885 -6.27997 -84.344 19.5455M1778.58 91.8262C1735.87 83.3836 1691.72 74.6507 1645.16 68.6538C1582.74 60.6118 1533.66 60.2526 1490.7 67.5345C1465.95 71.6799 1441.81 77.4972 1418.44 83.0796C1373.53 93.8574 1327.13 104.912 1273.98 105.52H1270.06C1195.23 105.52 1145.52 79.4316 1097.38 54.1865C1048.07 28.3196 1001.53 3.88979 930.338 5.94864C864.096 7.86931 795.622 21.6456 729.394 34.966C702.904 40.2997 677.891 45.3293 653.159 49.599L637.061 52.3626C556.228 66.4429 464.604 82.4163 381.406 73.6282C334.366 68.6676 303.441 54.7807 270.711 40.0786C255.736 33.3631 240.273 26.4128 223.125 20.4297C120.99 -15.3031 10.9466 11.075 -95.4754 36.5412M1799.39 110.439C1761.37 100.393 1722.08 89.9882 1679.65 82.2088C1620.52 71.3757 1573.02 69.7728 1530.02 77.1238C1497.17 82.7477 1466.28 91.2042 1436.39 99.3843C1393.12 111.24 1348.35 123.483 1296.45 127.573C1199.84 135.186 1140.74 105.796 1083.58 77.3726C1033.32 52.3624 985.803 28.7339 914.165 27.4351C849.387 26.2882 774.571 40.8521 708.683 53.6888C682.459 58.8152 657.668 63.6377 634.119 67.5066L609.668 71.5276C525.627 85.3454 421.023 102.659 333.982 90.7758C292.161 85.0691 263.246 71.2236 235.262 57.8342C219.799 50.4279 203.804 42.7728 185.695 36.4857C88.8226 2.88084 -6.21651 27.4351 -106.814 53.4401M1820.28 128.678C1785.29 116.726 1749.09 104.359 1708.73 94.8525C1611.65 71.9564 1535.46 93.83 1454.8 116.961C1407.65 130.502 1358.89 144.5 1303.84 150.124C1289.85 151.562 1275.79 152.295 1261.71 152.321C1179.28 152.321 1123.11 125.749 1068.51 99.9512C1013.33 73.8494 961.205 49.2123 883.491 48.7287C819.703 48.3556 749.78 61.2752 682.178 73.808C653.055 79.1969 625.544 84.2957 599.201 88.2061C590.923 89.4359 582.393 90.7209 573.671 92.0475C489.172 104.857 384.022 120.788 298.414 108.726C257.14 102.908 229.437 88.9799 202.651 75.5628C187.868 68.1012 172.479 60.3633 154.872 54.0209C61.4889 20.3055 -25.3901 44.5695 -117.369 70.2568M1839.19 146.517C1807.11 132.851 1773.95 118.716 1735.71 107.648C1638.02 79.3488 1553.69 106.266 1464.4 134.62C1415.36 150.234 1364.66 166.401 1311.2 172.798C1201.81 185.925 1134.16 161.744 1063.16 131.345C1053.2 127.062 1043.32 122.571 1032.86 117.817C982.862 95.0734 926.155 69.2618 856.438 69.4552C794.143 69.621 726.098 81.7254 660.299 93.4429C628.087 99.1773 597.679 104.594 568.409 108.56C559.677 109.748 550.679 110.991 541.415 112.29C456.65 124.077 351.16 138.765 266.971 126.578C226.17 120.664 199.576 106.653 173.839 93.1113C159.573 85.5944 144.835 77.8288 127.687 71.4035C37.1565 37.5085 -42.4937 61.5238 -126.786 86.9485M1854.76 163.927C1825.29 148.825 1794.83 133.197 1758.67 120.871C1662.11 87.9986 1565.59 121.217 1472.26 153.357C1421.57 170.795 1369.17 188.841 1317.68 195.805C1210.56 210.3 1142.19 192.544 1053.48 154.725C1042.64 150.096 1031.91 145.218 1020.54 140.05C967.813 116.076 908.09 88.8415 834.515 89.5462C773.906 90.0574 707.87 101.54 643.935 112.636C608.751 118.743 575.519 124.505 543.411 128.499C534.186 129.645 524.637 130.875 514.806 132.133C429.878 143.021 324.107 156.576 241.323 144.348C200.862 138.364 175.228 124.284 150.452 110.674C136.689 103.115 122.453 95.2944 105.69 88.8138C16.9924 54.5457 -56.6116 78.409 -134.621 103.668M1865.8 181.02C1838.38 164.798 1810.02 148.009 1775.39 134.813C1725.58 115.842 1685.98 113.327 1634.12 125.832C1588.29 136.886 1546.81 152.182 1506.63 166.967C1450.69 187.583 1392.81 208.877 1322.14 219.364C1208.76 236.167 1137.64 217.748 1046.03 177.911C1034.54 172.923 1023.14 167.589 1011.05 161.938C956.769 136.582 895.228 107.882 818.963 108.712C760.275 109.375 696.029 120.443 633.882 131.152C596.052 137.674 560.322 143.823 525.775 147.802C515.988 148.921 505.818 150.137 495.337 151.381C410.365 161.509 304.637 174.111 223.08 161.91C182.826 155.885 157.962 141.75 133.925 128.084C120.62 120.484 106.724 112.636 90.2561 106.1C2.81538 71.3758 -66.6937 95.2392 -140.239 120.401M1870.69 197.809C1845.56 181.517 1819.6 164.646 1787.8 151.326C1741.8 131.981 1702.18 128.084 1655.35 138.212C1602.06 149.723 1555.24 168.529 1509.97 186.699C1460.36 206.624 1409.08 227.227 1347.88 239.207C1276.54 253.094 1216.14 253.646 1157.82 240.906C1106.24 229.645 1061.33 209.637 1003.51 182.595L998.221 180.122C933.265 149.723 866.121 118.26 771.91 130.115C733.386 134.965 694.832 140.879 657.535 146.6C606.282 154.462 553.286 162.601 499.358 168.128C489.143 169.178 478.396 170.339 467.25 171.541C384.554 180.467 281.636 191.577 205.593 177.814C169.685 171.32 146.919 157.875 124.893 144.886C110.997 136.679 96.6131 128.195 79.0659 121.534C25.6405 101.277 -54.4384 101.54 -111.323 122.156C-128.101 128.236 -141.909 134.191 -155.243 139.967M1872.7 214.528C1846.83 198.071 1820.08 181.048 1786.96 167.548C1741.13 148.769 1701.56 145.177 1654.82 155.554C1602.38 167.189 1556.26 185.677 1511.67 203.571C1461.69 223.607 1410 244.333 1348.03 256.299C1190.77 286.699 1103.93 246.627 1003.4 200.185L997.083 197.27C932.304 167.313 865.323 136.347 771.733 146.973C728.7 151.851 685.563 158.304 643.831 164.549C597.339 171.458 549.221 178.699 500.822 183.811C490.474 184.903 479.638 186.105 468.418 187.349C386.55 196.455 284.667 207.771 208.446 193.871C172.967 187.404 148.975 174.443 125.736 161.91C111.086 154.006 95.9335 145.826 78.061 139.373C23.9557 119.835 -54.3048 119.02 -112.254 137.37C-133.142 143.989 -149.669 151.188 -165.664 158.096M1874.24 230.958C1845.26 213.81 1815.3 196.068 1777.16 182.374C1727.67 164.591 1689.85 163.029 1637.64 176.723C1593.53 188.274 1553.3 203.557 1514.41 218.342C1456.56 240.326 1396.75 263.056 1322.68 274.152C1208.57 291.231 1133.57 271.886 1042.61 232.699C1030.06 227.296 1017.57 221.465 1004.34 215.302C949.94 189.933 888.28 161.178 812.696 160.432C752.293 159.851 685.563 170.698 621.065 181.158C587.804 186.561 556.375 191.674 526.233 195.211C516.373 196.372 506.173 197.615 495.706 198.886C413.425 208.89 311.024 221.34 229.496 209.637C190.248 203.999 161.244 191.411 133.201 179.238C117.812 172.55 101.89 165.641 84.4171 159.893C27.4143 141.239 -48.9097 138.295 -110.037 152.417C-137.282 158.801 -157.978 167.672 -178.083 176.294M1872.11 246.13C1840.64 229.286 1808.09 211.875 1767.15 198.721C1717.82 182.872 1678.62 181.918 1627.35 195.308C1585.68 206.182 1547.27 220.332 1510.11 233.998C1452.37 255.277 1392.63 277.275 1319.13 287.611C1208.26 303.197 1134.18 284.446 1043.56 246.807C1030.63 241.445 1017.81 235.683 1004.25 229.576C947.782 204.206 889.389 177.953 815.8 176.129C753.402 174.581 685.06 185.317 618.937 195.708C590.938 200.116 564.491 204.275 538.946 207.44C530.712 208.462 522.316 209.526 513.815 210.604C429.435 221.299 333.79 233.403 249.616 223.04C209.702 218.121 176.411 207.15 144.243 196.538C126.681 190.748 108.513 184.765 89.4433 179.818C28.8335 164.08 -47.6531 160.141 -109.978 169.551C-142.204 174.415 -165.724 184.751 -188.475 194.617M1868.84 260.693C1834.12 244.236 1798.21 227.24 1754.07 215.095C1704.16 201.277 1664.87 201.097 1613.91 214.362C1574.95 224.504 1538.62 237.466 1503.5 249.998C1446.04 270.518 1386.64 291.714 1313.94 301.207C1291.24 304.26 1268.34 305.829 1245.41 305.905C1172.79 305.905 1113.59 288.66 1044.36 260.679C1031.05 255.318 1017.99 249.625 1004.1 243.532C948.684 219.295 891.37 194.243 820.146 191.245C755.397 188.481 685.415 199.246 617.739 209.623C596.156 212.939 575.756 216.076 555.829 218.715L544.505 220.221C460.376 231.427 365.026 244.14 275.796 235.559C234.064 231.551 195.865 222.611 158.923 213.975C138.789 209.263 117.974 204.4 96.8348 200.392C31.6275 188.025 -45.6278 183.286 -109.815 187.694C-146.772 190.25 -171.09 201.18 -196.798 212.773M1867.97 275.285C1828.47 258.883 1787.63 241.943 1738.73 231.344C1644.11 210.839 1556.29 241.266 1471.44 270.684C1418.53 289.034 1363.8 307.992 1307.49 314.721C1288.23 317.055 1268.82 318.241 1249.4 318.272C1156.96 318.272 1090.75 289.849 1026.37 262.213C967.458 236.927 906.538 210.77 825.321 205.726C757.452 201.581 682.651 212.939 616.646 223.012C602.469 225.182 589.061 227.158 575.727 229.134C481.707 242.592 396.558 253.246 306.442 247.263C261.709 244.306 218.217 237.714 176.16 231.344C153.232 227.862 129.505 224.27 105.897 221.313C34.4233 212.573 -37.521 207.61 -109.593 206.445C-151.325 205.864 -176.367 217.748 -202.976 230.322M1865.8 288.978C1820.99 273.005 1774.66 256.479 1721.77 247.594C1628.64 231.952 1549.93 258.234 1466.66 286.035C1413.68 303.736 1358.89 322.031 1300.24 328.304C1179.87 341.196 1100.56 307.757 1023.9 275.423C966.733 251.325 907.631 226.411 831.086 219.931C758.649 213.823 681.498 225.942 613.452 236.637L597.693 239.096C507.429 253.149 429.08 261.84 340.087 258.552C291.304 256.742 242.402 252.693 195.111 248.783C169.212 246.627 142.44 244.416 116.038 242.592C91.2617 240.893 66.0125 239.981 41.606 239.096C25.4187 238.516 8.66978 237.908 -7.8427 237.079C-29.8692 235.973 -49.7522 233.265 -68.9699 230.626C-81.9197 228.857 -95.2982 227.033 -109.298 225.693C-155.243 221.327 -180.477 233.984 -207.19 247.373M1866.83 302.616C1813.95 286.491 1759.29 269.827 1699.79 263.319C1610.48 253.549 1537.6 276.86 1460.47 301.552C1401.73 320.331 1341.01 339.814 1271.9 343.628C1263.03 344.125 1254.36 344.369 1245.91 344.36C1152.85 344.36 1083.84 315.674 1016.92 287.859C957.154 262.987 895.347 237.327 816.776 232.325C744.576 227.738 675.984 239.455 609.653 250.786L608.855 250.924C475.602 273.682 345.084 269.993 206.923 266.124C183.27 265.447 158.82 264.742 134.576 264.217C114.19 263.761 93.3758 263.581 73.2415 263.415C49.1898 263.208 24.325 263.001 -0.0667725 262.31C-31.7021 261.426 -52.5903 256.962 -76.7603 251.795C-86.044 249.819 -95.6233 247.774 -106.415 245.811C-157.771 236.498 -181.63 249.211 -209.259 263.927M1871.46 316.13C1810.66 300.281 1747.82 283.893 1681.88 279.734C1597.02 274.359 1528.96 295.141 1456.93 317.125C1397.8 335.199 1336.56 353.894 1264.99 356.851C1258.43 357.128 1251.98 357.261 1245.64 357.252C1151.81 357.252 1081.55 328.47 1013.37 300.599C956.015 277.109 896.707 252.831 823.694 245.839C754.126 239.179 693.959 249.045 633.335 260.638C513.593 283.548 381.671 283.99 254.124 284.419C218.468 284.529 181.688 284.653 145.988 285.289C131.426 285.552 116.422 285.966 101.831 286.381C68.7175 287.334 34.4656 288.301 1.30757 287.445C-34.4818 286.505 -54.8674 280.398 -78.4313 273.323C-86.9019 270.78 -95.6533 268.155 -105.868 265.516C-160.565 251.394 -182.739 264.023 -210.827 280.038M1881.6 329.81C1811.57 313.975 1739.17 297.615 1664.74 296.136C1585.87 294.547 1522.26 313.022 1454.82 332.56C1394.45 350.067 1332.02 368.168 1258.41 370.075C1254.32 370.186 1250.24 370.227 1246.22 370.227C1151.12 370.227 1078.71 341.127 1008.58 312.939C953.887 290.927 897.254 268.183 830.273 259.45C766.573 251.159 716.681 257.543 656.825 270.504C591.041 284.792 533.728 288.992 456.99 291.452C387.792 293.649 317.647 297.504 249.823 301.235C219.355 302.921 187.853 304.648 156.853 306.209C143.992 306.859 130.569 307.674 117.575 308.462C79.465 310.797 40.113 313.16 2.65314 312.179C-36.1519 311.184 -55.8279 303.529 -78.6527 294.658C-86.7833 291.494 -95.1948 288.233 -105.262 284.916C-162.915 265.875 -184.454 279.071 -211.699 295.777M1899.37 344.18C1818.48 327.806 1734.82 310.866 1649.1 312.524C1577.56 313.905 1515.22 331.067 1454.94 347.649C1392.54 364.81 1328.03 382.552 1252.65 383.271C1251.17 383.271 1249.83 383.271 1248.42 383.271C1154.49 383.271 1075.79 353.355 999.61 324.421C898.643 286.063 803.264 249.805 678.334 280.881C613.156 297.075 558.075 299.632 488.33 302.851C413.957 306.292 338.904 312.524 266.335 318.659C233.591 321.422 199.812 324.186 166.403 326.77C154.163 327.709 141.804 328.787 128.707 329.934C87.1077 333.568 44.0895 337.327 3.80618 336.249C-37.3493 335.157 -56.4488 326.038 -78.5492 315.522C-86.458 311.75 -94.6182 307.839 -104.508 303.915C-140.593 289.559 -165.118 282.028 -202.075 298.388C-213.251 303.335 -219.282 310.244 -225.136 316.918M1927.22 360.347C1833.34 342.204 1736.26 323.44 1635.75 328.926C1571.81 332.408 1513.83 347.593 1457.78 362.282C1393.6 379.098 1327.29 396.467 1251.57 396.467H1247.98C1162.4 395.845 1083.56 365.999 1007.31 337.133C904.291 298.126 806.99 261.287 696.65 292.018C638.45 308.226 589.829 310.921 528.258 314.334L515.235 315.066C436.279 319.516 357.058 327.931 280.35 336.083C245.595 339.773 209.673 343.586 174.253 346.985C162.427 348.118 150.275 349.431 137.429 350.813C93.08 355.608 47.0905 360.568 4.69322 359.311C-40.9711 357.929 -62.1106 345.825 -86.591 331.744C-92.1198 328.566 -97.826 325.278 -104.079 321.975C-143.579 301.027 -172.834 298.485 -205.046 312.925C-216.355 318.01 -221.84 325.361 -227.132 332.56M1825.53 357.252C1635.75 328.926 1514.99 363.553 1463.2 376.597C1398.25 392.93 1331.19 409.76 1256.6 409.76C1252.68 409.76 1248.76 409.76 1244.77 409.622C1146.3 407.259 1064.27 377.122 984.946 347.967C939.843 331.385 893.203 314.265 845.026 303.031C787.239 289.573 758.383 289.807 710.768 304.123C654.445 321.063 610.835 323.689 550.477 327.337L536.093 328.207C453.427 333.292 370.776 343.49 290.845 353.355C254.479 357.846 216.931 362.489 179.781 366.579C168.369 367.85 156.617 369.343 144.169 370.807C99.732 376.238 49.3668 382.4 5.21031 380.95C-42.5827 379.374 -63.8257 365.28 -88.4097 348.975C-93.2437 345.756 -98.2551 342.439 -103.606 339.137C-125.618 325.526 -145.738 318.576 -165.074 317.871C-179.991 317.397 -194.789 320.514 -208.048 326.922C-219.534 332.228 -224.309 340.159 -229.069 347.828M1825.53 367.09C1595.7 352.913 1518.47 379.153 1470.74 390.746C1405.08 406.692 1337.34 423.135 1263.2 423.135C1256.72 423.135 1250.19 423.006 1243.62 422.748C1141.61 418.672 1052.34 387.513 966.053 357.39C925.253 343.144 886.743 329.755 847.155 319.018C792.842 304.371 765.435 301.939 719.771 317.429C665.976 335.682 626.52 338.004 566.783 341.541C561.21 341.873 555.444 342.204 549.472 342.577C464.204 347.787 379.232 359.338 297.054 370.503C259.52 375.588 220.715 380.867 182.472 385.454C171.769 386.739 160.697 388.218 148.989 389.724C102.999 395.748 50.8749 402.574 5.46194 400.778C-43.1885 398.899 -64.6385 383.05 -87.345 366.233C-92.3416 362.544 -97.5008 358.73 -103.044 354.986C-125.825 339.62 -146.876 331.73 -167.394 330.832C-182.551 330.316 -197.586 333.537 -210.989 340.173C-222.727 345.769 -226.895 354.323 -230.916 362.586M1831 378.642C1643.26 370.227 1523.99 394.809 1479.17 405.089C1413.27 420.22 1345.34 435.82 1271.85 435.82C1262.98 435.82 1254.05 435.581 1245.07 435.102C1138.75 429.45 1043.68 397.794 951.744 367.229C916.132 355.373 882.501 344.181 848.485 334.522C797.898 320.165 768.924 315.26 722.032 332.256C666.996 352.209 628.294 354.364 564.151 357.819L552.325 358.468C466.037 363.263 380.178 375.575 297.143 387.486C259.402 392.902 220.375 398.54 181.955 403.293C172.213 404.509 162.175 405.849 151.561 407.273C104.729 413.56 51.6732 420.676 5.32887 418.562C-43.2181 416.351 -64.1507 400.143 -86.325 382.981C-91.4251 379.029 -96.673 374.939 -102.424 370.96C-125.13 355.11 -147.23 346.613 -168.119 345.673C-183.562 345.119 -198.881 348.46 -212.467 355.345C-224.294 361.094 -228.034 369.951 -231.685 378.518M1820.28 393.828C1577.68 409.193 1545.79 413.532 1502.14 422.845C1436.92 436.663 1369.73 450.895 1297.21 450.895C1288.13 450.895 1278.98 450.665 1269.75 450.204C1166.64 444.912 1074.83 416.489 986.011 388.991C946.91 376.873 909.968 365.501 871.946 355.829C811.573 340.491 769.944 339.496 718.603 352.181C659.693 366.717 611.486 369.315 550.448 372.604C543.953 372.954 537.291 373.317 530.461 373.695C447.677 378.31 365.662 390.995 286.352 403.251C251.168 408.682 214.788 414.306 178.999 419.114C170.439 420.275 161.673 421.519 152.389 422.845C107.272 429.27 56.1528 436.58 11.1833 434.59C-34.4663 432.6 -56.2562 417.691 -79.3323 401.897C-84.8168 398.139 -90.4934 394.256 -96.5544 390.511C-118.729 376.873 -140.208 369.577 -160.549 368.873C-176.485 368.405 -192.285 371.733 -206.465 378.545C-217.316 383.603 -222.312 391.548 -227.161 399.272M1859.89 417.194C1800.92 412.219 1587.11 435.06 1544.49 443.834C1479.03 457.334 1411.45 471.249 1337.78 471.249C1330.94 471.249 1324.07 471.124 1317.09 470.876C1220.7 467.407 1133.85 444.111 1049.87 421.588C940.125 392.156 836.482 364.354 712.631 376.486C666.996 380.95 621.761 382.317 578.033 383.63C549.369 384.501 519.729 385.399 490.09 387.154C414.697 391.631 340.516 404.716 268.76 417.387C237.716 422.914 205.593 428.538 174.017 433.388C166.359 434.563 158.11 435.931 149.389 437.368C110.288 443.862 61.6225 451.932 23.3201 449.154C-19.979 446.018 -41.6359 433.734 -66.7077 419.501C-72.7391 416.088 -78.9627 412.592 -85.7037 409.041C-125.455 388.176 -162.249 385.661 -197.891 401.151C-208.684 405.576 -218.177 412.368 -225.565 420.952M1854.76 434.079C1798.24 434.079 1636.15 457.721 1594.02 466.275C1527.49 479.761 1458.81 493.689 1382.81 493.689C1379.52 493.689 1376.22 493.689 1372.89 493.62C1268.1 491.934 1169.33 469.798 1073.82 448.394C1037.81 440.325 1000.59 431.979 964.25 425.056C883.802 409.746 799.288 402.367 705.801 402.671C673.146 402.754 638.82 401.828 605.662 400.93C551.631 399.452 495.766 397.932 443.893 400.695C378.286 404.205 313.685 417.802 251.213 431.012C224.811 436.539 197.507 442.315 170.942 447.096C165.384 448.104 159.544 449.196 153.483 450.343C119.483 456.74 77.1741 464.699 41.7691 462.862C3.12664 460.844 -20.4077 449.845 -45.3168 438.183C-53.2848 434.452 -61.578 430.597 -70.4477 427.018C-114.515 409.193 -152.67 408.033 -187.085 423.453C-197.298 428.04 -206.882 433.76 -215.63 440.491M1992.71 494.173C1934.45 477.301 1849.02 458.772 1772.86 466.413C1751.25 468.582 1729.65 473.142 1708.74 477.55C1693.96 480.659 1678.75 483.879 1663.55 486.255C1647.71 488.729 1631.62 491.423 1616.09 494.021C1559.05 503.597 1500.07 513.49 1437.98 514.748C1432.38 514.844 1426.76 514.9 1421.16 514.9C1313.42 514.9 1208.29 495.472 1106.28 476.638C1078.73 471.553 1050.24 466.289 1022.7 461.618C924.129 444.83 823.605 434.19 715.542 428.994C686.11 427.613 655.524 425.374 623.12 423.039C545.436 417.512 465.121 411.681 395.464 416.586C342.245 420.317 291.008 432.863 241.456 444.982C216.679 451.048 191.075 457.307 165.871 462.295C162.352 462.986 158.765 463.705 155.109 464.451C125.794 470.365 92.5772 477.067 60.7496 475.643C28.9221 474.22 5.86078 465.183 -16.6092 456.437C-28.7164 451.711 -41.2522 446.833 -54.8525 443.296C-104.804 430.321 -139.958 431.136 -176.22 446.128C-186.029 450.233 -195.571 454.875 -204.795 460.029M1803.78 488.701C1783.58 490.263 1762.97 494.159 1743.06 497.918C1728.41 500.681 1713.27 503.555 1698.29 505.49C1678.87 508.005 1659.21 510.851 1640.2 513.601C1584.47 521.657 1526.83 529.989 1467.07 531.274C1459.68 531.426 1452.29 531.509 1444.9 531.509C1334.49 531.509 1225.76 514.306 1120.39 497.627C1094.03 493.482 1066.77 489.143 1040.31 485.191C941.263 470.6 833.348 459.836 710.457 452.305C675.821 450.191 640.52 448.284 606.386 446.432C577.205 444.857 547.018 443.213 517.364 441.458C503.941 440.657 489.956 439.496 476.43 438.377C442.932 435.613 408.31 432.711 375.817 434.66C329.163 437.423 284.932 449.279 242.151 460.693C221.115 466.303 199.354 472.106 177.89 476.652L173.691 477.55C147.599 483.077 118.034 489.378 87.7288 487.886C58.7395 486.504 34.5991 479.222 11.2569 472.23C-3.31902 467.864 -18.3976 463.346 -34.2448 460.416C-85.1866 451.034 -124.864 453.328 -162.856 467.878C-172.139 471.429 -180.034 474.787 -186.996 477.716M1812.74 509.179C1755.56 510.326 1697.23 519.819 1640.82 528.994C1589.89 537.284 1537.22 545.851 1484.47 548.56C1463.43 549.656 1442.36 550.185 1421.26 550.149C1307.82 550.149 1194.09 535.847 1083.53 521.96C1058.4 518.796 1032.43 515.535 1007.22 512.55C887.408 498.346 787.727 487.83 693.516 479.457C665.916 477.011 636.986 473.708 606.371 470.213C527.652 461.231 446.243 451.946 375.433 455.649C334.484 457.804 296.034 467.891 258.855 477.647C238.026 483.174 216.473 488.77 194.845 492.915C137.355 503.97 94.8243 495.886 49.7957 487.388C29.3066 483.505 8.10795 479.498 -15.8847 476.887C-71.2613 470.89 -112.565 482.414 -152.508 493.468M1818.49 534.645C1780.83 521.339 1667.15 535.875 1604.61 544.47C1558.31 550.826 1510.43 557.389 1463.57 559.669C1334.37 565.929 1205.37 551.503 1080.61 537.561C1053.77 534.562 1026.04 531.467 998.945 528.648C912.451 519.653 824.152 511.21 738.767 503.044L703.362 499.658C677.358 497.171 650.764 494.131 622.603 490.87C548.201 482.303 471.241 473.46 401.288 474.952C361.375 475.823 323.915 484.915 287.652 493.703C267.119 498.691 245.876 503.845 224.47 507.424C173.484 515.963 130.096 509.511 84.1513 502.685C59.316 498.995 33.653 495.181 6.40811 493.883C-46.5294 491.354 -89.3997 501.814 -130.851 511.915M1993.69 583.007C1918.94 568.554 1841.67 553.589 1762.84 548.463C1693.86 543.958 1623.34 551.641 1555.18 559.061C1517.48 563.206 1478.5 567.352 1440.33 569.521C1311.88 576.623 1183.89 563.455 1060.13 550.715C1042.39 548.873 1024.65 547.067 1006.91 545.298C965.905 541.153 924.011 537.588 883.506 534.092C834.722 529.878 784.194 525.511 734.746 520.274C711.093 517.787 686.479 514.913 662.694 512.136C593.466 504.052 521.857 495.706 453.206 493.813C407.157 492.542 366.548 500.833 323.545 509.607C307.653 512.854 291.2 516.212 274.643 518.989C220.922 528.012 173.41 522.941 123.089 517.608C91.3798 514.236 58.5914 510.699 24.0438 511.099C-25.8928 511.625 -67.7283 521.117 -108.189 530.292M1934.86 598.331C1866.05 586.849 1794.9 574.965 1722.46 568.153C1642.4 560.623 1563.37 568.471 1486.94 576.071C1445.65 580.216 1402.96 584.362 1360.08 586.296C1186.44 593.91 978.249 579.387 741.324 542.977C727.221 540.808 712.601 538.487 698.454 536.234C630.098 525.36 559.421 514.126 490.725 511.514C445.77 509.773 403.033 517.511 361.714 524.973C342.881 528.358 323.427 531.882 303.899 534.479C254.923 541.001 207.026 536.856 160.712 532.849C121.611 529.464 81.1651 525.94 39.9652 528.842C-5.49216 532.006 -44.5485 540.421 -82.304 548.546M1887.97 616.336C1820.44 606.028 1750.63 595.36 1680.45 587.954C1584.36 577.812 1500.26 585.937 1411.17 594.531C1386.03 596.963 1360.08 599.464 1333.35 601.606C1147.08 616.571 946.599 605.226 783.307 570.461C772.782 568.213 762.193 565.91 751.539 563.552C687.633 549.734 621.538 535.336 553.301 530.044C498.826 525.898 450.515 533.056 399.367 540.683C377.281 543.986 354.427 547.399 331.01 549.817C284.755 554.598 239.726 551.323 196.191 548.159C150.186 544.815 102.63 541.36 53.4915 547.413C14.5386 552.207 -19.8463 559.476 -53.1078 566.495M1833.6 633.359C1771.4 624.281 1707.07 614.885 1642.9 607.658C1518.13 593.592 1423.84 602.435 1313.51 615.465C1246.33 623.626 1178.66 627.835 1110.91 628.067C1001.68 628.067 901.822 615.866 808.941 591.34L794.04 587.374C728.02 569.853 659.767 551.752 585.986 546.459C532.265 542.604 483.511 549.223 431.904 556.215C406.27 559.683 379.779 563.276 352.771 565.431C313.33 568.582 281.562 565.335 247.931 561.88C236.223 560.678 224.101 559.448 211.181 558.412C166.536 554.833 118.27 557.666 63.6326 567.048C33.7268 572.188 6.40805 578.102 -20.0237 583.74M1825.53 653.547C1652.1 627.653 1472.75 600.887 1294.59 630.057C1109.55 660.456 978.234 655.827 841.522 614.235L825.675 609.413C760.749 589.557 693.605 569.01 617.103 563.165C560.825 558.868 509.661 565.265 455.497 572.036C428.74 575.38 401.081 578.848 372.861 580.865C333.376 583.629 301.43 580.396 267.621 576.872C253.829 575.49 239.534 573.97 224.248 572.851C168.147 568.706 114.53 578.102 74.0691 586.669C54.3191 590.814 35.6336 595.153 17.5098 599.298M1849.01 680.008C1798.24 677.12 1652.22 651.875 1599.53 645.381C1491.61 632.088 1394.05 622.83 1291.78 644.386C1275.52 647.813 1259.43 651.599 1243.88 655.247C1195.1 666.702 1149.07 677.535 1093.7 679.635C1003.96 683.02 932.896 663.524 869.433 641.94C857.784 637.975 846.046 633.843 834.693 629.85C778.252 609.994 719.904 589.46 650.705 581.667C584.892 574.261 525.568 581.266 462.77 588.7C443.331 590.994 423.226 593.371 402.855 595.305C357.812 599.575 315.37 596.825 274.318 594.172C220.021 590.649 168.739 587.263 112.963 599.271C86.2208 605.005 60.1734 612.315 34.9982 619.376C-3.24514 630.098 -42.7746 641.194 -86.1328 647.232M1859.89 695.829C1802.65 687.981 1660.92 666.342 1602.4 659.406C1500.4 647.343 1404.01 635.915 1298.52 659.945C1280.34 664.09 1262.24 668.829 1244.75 673.417C1199.81 685.217 1153.35 697.405 1100.41 700.569C1009.87 705.986 935.32 682.703 872.537 660.456C863.608 657.296 854.738 654.109 845.928 650.894C783.706 628.426 724.945 607.202 649.079 600.514C583.162 594.697 522.138 599.975 457.522 605.572C437.077 607.34 415.923 609.164 394.665 610.615C352.653 613.462 312.458 611.334 273.594 609.233C215.527 606.152 160.682 603.236 102.408 616.142C77.8092 621.669 53.6244 628.302 30.3414 634.796C-9.02541 645.74 -49.7374 657.071 -94.5444 662.929M1873.91 702.891C1786.47 691.836 1696.06 680.478 1606.34 671.11C1494.16 659.447 1413.31 653.63 1315.12 678.143C1298.48 682.288 1281.48 687.097 1265.02 691.74C1217.72 705.101 1168.83 718.919 1114.4 722.001C1106.95 722.424 1099.56 722.636 1092.23 722.636C1010.08 722.636 937.315 697.115 872.492 674.384L870.571 673.707C785.052 643.806 716.947 622.277 619.602 619.293C559.11 617.441 498.53 620.771 439.931 623.991C406.477 625.829 371.929 627.735 337.471 628.675C299.198 629.725 262.492 627.556 226.983 625.469C207.899 624.35 188.149 623.189 168.221 622.512C118.876 620.84 72.6796 631.287 29.5876 642.106M1840.82 701.357C1830.47 700.486 1600.17 682.178 1589.17 681.155C1538 676.43 1485.08 671.483 1436.9 677.01C1407.34 680.354 1378.85 687.926 1351.34 695.263L1345.34 696.852C1328.43 701.343 1311.6 706.442 1293.79 711.831C1247.11 725.966 1198.82 740.585 1146.64 744.593C1137.77 745.284 1128.9 745.601 1120.03 745.601C1039.85 745.601 962.358 719.223 898.851 697.598L882.885 692.168C795.976 662.86 720.392 640.42 605.795 640.31C542.391 640.227 478.145 642.244 415.983 644.165C372.373 645.547 327.285 646.928 282.789 647.578C251.745 648.048 221.366 647.398 192.066 646.749C116.171 645.091 44.4888 643.529 -28.9525 661.644M1820.28 705.419C1809.67 704.88 1614.92 696.811 1604.2 696.148C1557.99 693.26 1510.2 690.275 1467.31 696.037C1440.89 699.574 1415.14 706.704 1390.23 713.586C1385.67 714.857 1381.13 716.114 1376.65 717.33C1359.16 722.07 1341.46 727.583 1322.72 733.4C1275.99 747.937 1227.67 762.97 1177.01 767.765C1166.74 768.71 1156.44 769.171 1146.12 769.147C1065.07 769.147 982.448 741.373 914.55 718.532C907.267 716.091 900.201 713.728 893.351 711.444C790.936 677.549 712.158 659.71 589.534 662.501C448.549 665.707 331.351 667.434 220.73 667.945C195.437 668.056 169.981 667.655 145.338 667.268C61.6075 665.887 -17.4513 664.684 -93.9379 682.233M1833.6 711.817C1822.59 711.817 1628.27 713.876 1617.24 713.696C1576.02 713.033 1533.41 712.314 1495.07 717.993C1469.94 721.71 1445.15 728.329 1421.16 734.74C1414.79 736.44 1408.5 738.126 1402.28 739.729C1383.42 744.606 1364.2 750.327 1343.86 756.31C1295.77 770.611 1246.04 785.327 1195.42 790.633C1184.76 791.713 1174.04 792.243 1163.32 792.222C1080.53 792.222 991.938 762.791 925.134 740.613C915.496 737.407 906.227 734.326 897.401 731.479C848.84 715.769 798.622 699.533 742.433 690.137C690.175 681.39 643.565 683.352 589.592 685.618L572.681 686.309C453.9 691.049 333.198 690.247 216.591 689.459C198.349 689.331 180.092 689.215 161.82 689.114C142.366 689.003 122.306 688.658 102.896 688.326C15.8097 686.917 -74.2772 685.383 -153.321 703.222M1408.52 765.679C1388.5 770.156 1367.42 775.71 1345.12 781.597C1291.9 795.594 1236.96 810.075 1184.35 813.53C1176.96 814.027 1169.44 814.248 1161.94 814.248C1079.63 814.248 994.717 786.336 925.415 763.523L905.754 757.112C793.138 720.564 711.536 703.416 578.21 711.14C452.644 718.408 325.925 715.285 203.375 712.383C178.909 711.775 153.601 711.167 128.662 710.642C115.151 710.366 101.417 710.007 87.5215 709.648C-8.56721 707.16 -108.012 704.576 -193.043 723.465M1818.49 722.664C1791.75 730.955 1589.36 765.789 1557.69 769.893C1504.7 776.802 1449.9 783.822 1396.47 792.9C1374.56 796.617 1351.53 801.301 1327.14 806.262C1266.74 818.546 1204.28 831.244 1146.02 832.239C1143.74 832.239 1141.48 832.239 1139.22 832.239C1053.04 832.239 972.011 804.341 900.285 779.731C890.705 776.443 881.333 773.223 872.197 770.156C820.634 752.842 773.536 737.96 719.253 731.466C673.19 725.939 629.743 729.628 583.739 733.552C566.591 735.017 548.866 736.523 530.993 737.518C419.516 743.722 307.875 738.748 199.857 733.925C174.09 732.779 147.437 731.59 121.123 730.568L116.866 730.402C11.9073 726.257 -106.932 721.683 -206.672 743.031M1816.26 734.202C1809.7 735.583 1685.23 772.574 1650.5 778.17C1595.27 787.069 1537.12 796.409 1480.5 802.807C1456.67 805.501 1432.02 808.334 1408.06 811.402C1378.88 815.188 1349.52 819.692 1318.42 824.556C1252.37 834.795 1184.07 845.38 1118.1 848.047C1112.6 848.268 1107.11 848.378 1101.69 848.378C1014.47 848.378 938.01 820.494 870.009 795.732L852.89 789.5C811.661 774.481 769.027 758.936 719.844 752.593C675.333 746.845 634.518 751.059 591.233 755.509C576.909 756.987 562.082 758.521 546.959 759.654C430.765 768.636 321.934 760.815 206.716 752.552C186.966 751.17 166.536 749.664 146.283 748.31C54.0679 742.119 -67.0631 737.905 -186.124 760.373M1818.49 747.094C1805.87 750.617 1675.56 794.641 1661.99 798.219C1598.15 815.215 1527.82 821.129 1459.79 826.85C1440.57 828.467 1420.69 830.138 1401.17 832.045C1366.79 835.389 1330.78 839.687 1295.95 843.832C1220.19 852.869 1141.84 862.223 1066.44 863.826C1063.31 863.826 1060.21 863.923 1057.12 863.923C969.483 863.923 902.694 837.559 838.019 812.037L829.903 808.831L818.313 804.23C783.84 790.495 748.183 776.291 705.269 771.399C666.907 767.019 631.354 771.745 593.658 776.733C578.032 778.805 561.89 780.961 545.525 782.398C438.482 791.794 342.704 780.671 241.308 768.898C222.253 766.687 202.547 764.393 182.842 762.266C58.9612 748.821 -36.5509 757.719 -141.835 775.075M1837 766.176C1822.72 771.123 1696.96 815.45 1681.01 820.549C1615.1 841.621 1537.47 845.532 1462.42 849.331C1441.37 850.395 1419.55 851.487 1398.51 852.952C1358.3 855.715 1316.42 859.46 1275.92 863.052C1188.83 870.777 1098.77 878.763 1012.16 879.067H1010.39C919.118 879.067 862.973 853.905 798.017 824.777C794.484 823.202 791.143 821.682 787.772 820.148C758.798 806.966 728.848 793.342 690.782 789.639C658.112 786.46 626.077 791.988 595.092 797.321C579.304 800.085 562.984 802.848 546.604 804.548C450.087 814.455 370.481 800.209 286.189 785.134C268.671 782.011 250.562 778.764 232.158 775.724C150.231 762.183 76.8191 760.524 13.9623 770.777C-0.820601 773.195 -15.6035 776.304 -29.7803 779.372C-47.1649 783.089 -65.1409 786.93 -83.9595 789.611M1809.18 791.297C1794.31 797.708 1719.7 836.536 1702.29 843.197C1636.89 868.207 1551.63 870.031 1469.16 871.799C1444.71 872.311 1421.59 872.808 1398.99 873.886C1353.16 876.069 1306.1 878.819 1260.66 881.472C1162.46 887.206 1060.9 893.134 961.471 894.046H957.435C871.695 894.046 823.576 868.939 767.963 839.936C765.007 838.416 762.05 836.841 759.093 835.251C735.441 822.691 711.108 809.702 677.787 807.091C649.7 804.894 622.13 811.236 595.388 817.247C580.294 820.674 564.684 824.225 549.191 826.187C463.155 837.117 400.786 820.77 334.736 803.457C318.682 799.311 302.081 794.89 284.755 790.813C199.236 770.681 134.073 781.473 58.5769 793.978C32.559 798.275 5.65416 802.738 -23.4238 806.096M1806.98 814.248C1793.48 821.489 1741.08 856.53 1724.77 864.172C1675.31 887.344 1632.17 888.367 1572.51 889.776C1506.38 891.324 1439.21 893.479 1374.24 895.552L1357.1 896.105C1326.65 897.026 1296.19 898.011 1265.73 899.062C1200.79 901.162 1133.65 903.345 1067.64 905.321C1051.69 905.791 1035.4 906.592 1018.15 907.435C990.43 908.817 962.047 910.199 934.566 910.199C922.858 910.199 911.298 909.95 900.033 909.328C827.967 905.39 792.118 883.683 750.475 858.534C745.862 855.771 741.176 852.91 736.357 850.05C683.819 818.891 654.534 825.62 606.016 836.785C586.799 841.193 565.053 846.195 538.148 849.746C468.27 858.962 425.192 843.058 379.587 826.256C362.483 819.941 344.803 813.419 325.023 807.933C255.544 788.699 191.652 800.361 123.976 812.7C92.0452 818.531 59.0203 824.556 24.8275 827.292M1813.32 834.491C1796.51 841.828 1784.21 851.998 1772.33 861.837C1762.9 869.644 1753.11 877.713 1741.05 884.484C1696.28 909.591 1658.17 911.235 1594.7 911.995C1527.11 912.81 1458.41 914.178 1391.98 915.505L1373.46 915.864C1322.56 916.873 1270.26 918.503 1219.71 920.01C1134.4 922.649 1046.83 925.357 960.288 925.357C935.296 925.357 910.416 925.108 885.65 924.611C805.556 922.925 769.663 897.97 728.108 869.036C725.788 867.419 723.393 865.678 720.924 863.868C705.934 852.91 688.934 840.488 663.759 839.327C640.002 838.208 617.281 846.913 595.329 855.328C585.037 859.501 574.493 863.109 563.752 866.134C487.458 885.838 450.382 870.279 407.468 852.095C390.453 844.924 372.861 837.504 351.071 831.368C297.453 816.169 254.583 825.689 200.286 837.794L198.881 838.098C157.356 847.356 111.056 852.593 53.1663 854.568C-17.4367 856.987 -89.1781 854.568 -158.554 852.192M1813.7 852.524C1797.53 860.096 1786.18 870.487 1775.27 880.505C1766.25 888.795 1756.92 897.252 1744.86 904.382C1700.02 930.884 1659.49 931.409 1598.12 932.211C1549.83 932.846 1500.74 933.869 1453.25 934.864C1427.04 935.398 1400.82 935.923 1374.61 936.439C1339.91 937.089 1304.34 937.821 1269.96 938.636C1184.22 940.557 1096.41 942.505 1009.22 942.505C965.891 942.505 922.71 942.022 879.958 940.806C800.677 938.567 767.327 914.731 725.107 884.553L724.915 884.415C674.653 848.489 652.109 856.047 597.486 874.162C587.641 877.437 576.48 881.071 564.151 884.899C490.37 907.436 456.635 894.364 413.927 877.838C397.844 871.606 379.616 864.559 357.368 858.935C310.846 847.19 274.126 855.591 231.581 865.333C223.524 867.171 215.201 869.077 206.642 870.86C155.715 881.582 100.797 882.729 58.6062 882.508C-3.05318 882.218 -65.0378 878.169 -124.997 874.218M1812.34 872.628C1796.29 879.8 1784.36 889.458 1772.8 898.799C1762.72 906.966 1752.28 915.38 1738.98 922.4C1695.91 945.033 1656.19 946.263 1601.21 947.949L1584.61 948.488C1549.65 949.69 1514.14 951.252 1479.8 952.841C1439.89 954.637 1398.75 956.488 1358.1 957.732C1308.16 959.266 1256.37 960.04 1198.74 960.04C1153.35 960.04 1104.33 959.57 1049.7 958.658C1030.65 958.326 1011.26 958.395 990.741 958.478C951.108 958.63 910.13 958.796 872.478 955.825C804.832 950.478 772.679 929.931 735.471 906.081C731.036 903.248 726.497 900.347 721.811 897.417C673.028 866.894 646.123 875.461 601.552 889.652C584.626 895.041 565.453 901.162 542.184 905.929C478.988 918.904 444.543 906.468 404.704 892.111C388.453 885.959 371.857 880.636 354.989 876.166C303.249 863.039 264.118 871.15 214.551 881.416C210.53 882.255 206.441 883.098 202.282 883.945C161.023 892.374 114.56 896.381 56.0494 896.602C-5.75784 896.795 -67.9642 893.272 -128.16 889.845M1809.18 891.945C1793.05 898.606 1780.31 907.477 1767.98 916.071C1756.55 924.03 1744.74 932.266 1730.05 938.967C1693.49 955.549 1664.32 959.266 1612.77 961.076C1570.81 962.61 1528.32 965.732 1487.25 968.745C1459.7 970.776 1431.21 972.89 1403.09 974.465C1349.49 977.519 1295.65 978.707 1241.96 978.707C1144.81 978.707 1047.98 974.811 953.207 971.011C936.404 970.329 919.586 969.661 902.753 969.007C822.645 965.953 786.648 947.797 734.539 918.406C732.38 917.204 730.222 915.961 728.034 914.703C709.26 903.884 689.835 892.705 661.836 891.669C636.986 890.757 613.866 898.758 591.499 906.509C578.904 910.862 566.989 914.993 554.631 917.702C484.752 933.012 443.05 920.134 394.754 905.266C380.09 900.747 364.937 896.077 347.996 891.835C287.756 876.801 227.737 886.308 164.186 896.284C126.489 902.226 87.5068 908.375 48.1843 909.038C-12.4255 910.088 -73.7597 907.366 -133.039 904.741M1772.93 929.834C1758.05 936.95 1741.18 945.033 1721.53 952.882C1682.24 968.579 1650.43 971.108 1602.72 973.415C1562.37 975.363 1521.76 979.578 1482.48 983.654C1455.77 986.418 1428.14 989.278 1400.79 991.42C1356.44 994.888 1312.83 996.27 1269.58 996.27C1189.95 996.27 1111.27 991.6 1029.63 986.763C992.677 984.58 954.493 982.314 916.516 980.559C837.767 976.897 798.356 960.565 742.788 934.09L737.273 931.437C715.794 921.143 693.516 910.489 663.862 909.494C638.834 908.693 615.581 915.574 593.111 922.22C580.294 926.006 567.049 929.931 553.596 932.376C481.825 945.462 435.333 932.598 381.553 917.688C365.809 913.322 349.504 908.803 331.823 904.755C266.04 889.748 206.169 898.716 142.898 908.223C107.286 913.57 70.4621 919.097 31.6127 920.327C-25.3014 922.124 -83.0285 920.534 -138.863 918.945M1765.05 945.959C1748.47 952.578 1729.66 960.081 1707.92 967.252C1670.77 979.509 1639.27 981.54 1599.38 984.11C1594.03 984.456 1588.52 984.801 1582.82 985.202C1545.59 987.758 1508.39 992.857 1472.43 997.804C1443.63 1001.76 1413.87 1005.85 1384.1 1008.64C1349.12 1011.83 1313.99 1013.38 1278.84 1013.29C1203.27 1013.29 1129.14 1006.96 1056.69 1000.77C1012.22 996.988 966.231 993.064 920.3 990.604C851.87 986.943 809.665 970.804 760.808 952.094C755.353 950.008 749.795 947.88 744.074 945.724C685.09 923.464 650.306 929.944 602.158 938.926C581.092 942.864 557.218 947.313 528.111 949.897C464.441 955.549 416.84 942.988 366.445 929.765C342.689 923.505 318.105 917.039 291.555 912.617C228.462 902.074 173.987 910.378 116.304 919.167C84.6983 923.989 52.0134 928.963 17.0962 930.843C-37.1717 933.758 -92.4744 933.357 -145.974 932.971M-155.258 955.673C-110.347 953.973 -63.9144 952.205 -19.2553 947.493C2.22418 945.227 22.4472 940.929 42.0197 936.756C58.8722 933.178 76.316 929.474 94.4398 927.084C152.403 919.484 217.507 926.946 261.93 934.546C287.504 938.912 312.472 944.218 336.598 949.386C402.012 963.342 463.805 976.51 537.246 972.323C557.011 971.19 576.495 968.178 595.328 965.124C618.981 961.38 643.446 957.511 669.154 957.331C710.309 957.041 747.133 966.105 779.493 974.078C853.91 992.414 910.026 999.337 981.782 1005.11C1026.77 1008.72 1069.81 1015.53 1111.46 1022.11C1194.82 1035.29 1273.57 1047.73 1364.48 1035.93C1394.71 1032 1424.04 1025.62 1452.4 1019.44C1482.39 1012.91 1513.4 1006.16 1545.81 1002.22C1563.15 1000.11 1580.07 998.95 1596.42 997.817C1623.68 995.938 1649.42 994.169 1676.13 988.366C1699.09 983.391 1719.17 978.224 1738.59 973.166M-162.412 970.016C-120.562 967.363 -77.2778 964.627 -35.7379 959.418C-17.4958 957.124 0.46538 953.006 17.8353 949.027C35.486 944.992 53.7429 940.805 72.2511 938.567C115.388 933.33 171.991 936.48 245.211 948.239C272.027 952.523 298.518 957.663 324.151 962.651C394.311 976.275 460.597 989.14 536.611 986.791C558.371 986.128 579.895 983.461 600.709 980.891C623.741 978.044 647.542 975.101 672.081 974.769C712.675 974.189 749.854 980.531 790.684 988.228C855.448 1000.42 912.14 1005.65 977.776 1011.72L1002.17 1013.98C1046.19 1018.13 1087.58 1026.42 1127.62 1034.52C1204.09 1049.92 1276.32 1064.47 1362.66 1050.84C1391.06 1046.36 1417.98 1039.1 1443.97 1032.1C1471.79 1024.61 1500.57 1016.9 1531.5 1012.35C1552.39 1009.31 1573.59 1008.04 1594.09 1006.83C1617.08 1005.44 1640.83 1004.06 1663.85 1000.07C1686.02 996.27 1706.13 992.277 1725.57 988.408M-167.631 985.105C-126.904 981.665 -84.8468 978.127 -44.4747 972.365C-29.0266 970.154 -13.135 966.603 2.22437 963.162C22.8465 958.561 44.1782 953.78 65.6281 951.929C120.591 947.175 185.739 956.074 242.505 964.821C266.616 968.524 290.727 972.669 314.04 976.815C393.305 990.632 468.166 1003.62 552.207 1001.22C575.608 1000.55 597.368 999.351 618.404 998.191C673.648 995.165 725.817 992.291 789.058 1000.68C858.301 1009.87 923.464 1015.09 992.441 1020.6L1009.66 1021.98C1055.93 1025.7 1098.85 1036.58 1140.34 1047.11C1208.2 1064.24 1272.27 1080.45 1349.73 1068.01C1380.77 1063 1408.55 1053.93 1435.37 1045.17C1459.02 1037.47 1483.32 1029.52 1510.14 1024.18C1535.59 1019.12 1563.05 1017.87 1589.6 1016.64C1608.81 1015.75 1628.8 1014.83 1647.63 1012.49C1671.15 1009.54 1693.02 1006.29 1714.16 1003.15M-170.602 1001.23C-130.969 997.389 -89.9913 993.423 -50.6097 987.717C-36.492 985.672 -21.7387 982.521 -7.45842 979.426C14.0063 974.852 36.1954 970.127 58.2958 968.552C112.667 964.669 177.712 973.65 229.984 980.877L236.43 981.775C261.147 985.174 286.026 989.002 310.078 992.705C388.117 1004.7 468.876 1017.13 553.212 1016.42C580.782 1016.2 607.258 1015.17 632.877 1014.18C687.78 1012.06 739.653 1010.03 798.445 1015.56C837.679 1019.22 878.11 1021.56 917.211 1023.85C953.917 1025.96 991.864 1028.15 1028.53 1031.42C1072.68 1035.36 1113.34 1047.89 1152.7 1060.01C1215.91 1079.49 1275.62 1097.9 1348.97 1083.85C1378.33 1078.22 1403.39 1068.27 1427.62 1058.64C1449.29 1050.03 1471.72 1041.14 1497.42 1035.15C1524.92 1028.77 1556.01 1027.86 1586.12 1026.99C1602.89 1026.49 1620.24 1025.98 1636.38 1024.5C1658.99 1022.44 1680.73 1020.13 1701.65 1017.89M-170.306 1018.71C-130.289 1014.88 -88.897 1010.92 -48.865 1005.64C-35.3091 1003.84 -21.694 1001.33 -7.2807 998.66C15.3962 994.515 38.8419 990.135 61.9623 988.988C112.623 986.224 170.262 993.258 221.115 999.393L237.849 1001.41C262.699 1004.35 287.8 1007.63 312.089 1010.81C390.704 1021.03 471.98 1031.62 555.193 1032.09C587.715 1032.31 619.854 1031.41 650.957 1030.55C701.219 1029.17 753.21 1027.79 806.724 1030.98C823.369 1032 840.237 1033.22 856.542 1034.39C877.711 1035.93 899.62 1037.5 921.217 1038.65C937.479 1039.52 955.381 1039.49 972.647 1039.46C997.127 1039.46 1022.42 1039.46 1045.08 1041.81C1085.96 1046.15 1124.29 1060.03 1161.38 1073.44C1221.9 1095.34 1279.07 1116.03 1348.12 1100.53C1376 1094.27 1398.57 1083.46 1420.41 1073.01C1440.36 1063.47 1461.01 1053.59 1485.94 1046.95C1514.72 1039.3 1548.4 1038.9 1580.96 1038.52C1596.78 1038.33 1611.74 1038.15 1626.2 1037.14C1645.56 1035.89 1664.74 1034.46 1683.27 1033.11M-165.813 1037.75C-122.425 1034.32 -77.5441 1030.84 -33.8311 1026.27C-20.7187 1024.89 -7.22195 1023.13 5.7722 1021.42C32.3814 1017.9 59.8923 1014.25 87.5511 1013.74C136.542 1012.84 187.587 1017.88 236.947 1022.7L258.308 1024.79C279.27 1026.79 300.543 1028.94 321.106 1031.06C403.195 1039.35 488.152 1048.07 573.405 1048.39C605.927 1048.53 638.538 1047.98 670.115 1047.44C721.559 1046.58 774.763 1045.68 828.291 1047.67C842.616 1048.21 857.162 1048.83 871.236 1049.43C896.958 1050.5 923.567 1051.64 949.762 1052.32C962.121 1052.63 975.056 1052.48 988.745 1052.32C1019.3 1051.96 1050.91 1051.6 1078.34 1056.65C1112.17 1062.87 1144.17 1076 1175.11 1088.7C1238.29 1114.62 1297.97 1139.1 1372.33 1109.78C1387.11 1103.95 1400.58 1096.32 1414.82 1088.23C1440.69 1073.55 1467.43 1058.37 1504.39 1053.52C1531.41 1049.95 1563.07 1050.08 1593.7 1050.2C1613.28 1050.28 1631.77 1050.35 1648.92 1049.54L1653.56 1049.3M-191.697 1059.57C-37.6894 1050.39 121.552 1040.92 279.063 1050.42C299.39 1051.64 320.056 1052.96 340.028 1054.24C417.461 1059.2 497.539 1064.32 576.85 1064.97C615.669 1065.3 655.199 1064.88 693.294 1064.46C739.21 1063.98 786.678 1063.45 833.584 1064.24C855.758 1064.6 881.037 1064.05 907.868 1063.47C969.246 1062.08 1038.84 1060.63 1087.69 1070.37C1119.56 1076.72 1150.54 1091.1 1180.52 1104.92C1242.17 1133.43 1300.37 1160.34 1370.28 1128.64C1383.95 1122.44 1396.25 1114.37 1409.26 1105.83C1433.93 1089.62 1459.45 1072.86 1497.36 1067.46C1526 1063.4 1561.06 1064.09 1594.93 1064.7C1612.43 1065.04 1628.93 1065.37 1643.97 1065.04L1652.72 1064.85M1657.36 1086.49H1641.84C1628.36 1086.49 1613.51 1086.04 1597.81 1085.56C1562.08 1084.43 1525.11 1083.28 1496.58 1087.59C1460.13 1093.12 1436.19 1110.79 1413.06 1127.91C1400.67 1137.06 1388.99 1145.71 1375.51 1152.58C1355.01 1163.35 1331.9 1169.03 1308.38 1169.06H1308.2C1261.46 1169.06 1218.41 1147.28 1176.75 1126.23C1146.43 1110.9 1117.8 1096.42 1088.88 1090.3C1040.69 1080.14 969.542 1082.58 906.774 1084.7C881.392 1085.57 857.325 1086.35 836.304 1086.36C757.038 1086.23 677.792 1086.07 598.566 1085.88" stroke="#56BCFF" stroke-opacity="0.3" stroke-width="2.73611" stroke-miterlimit="10"/>
</g>
<defs>
<clipPath id="clip0_560_3117">
<rect width="1728" height="714" fill="white"/>
</clipPath>
</defs>
</svg>